#!OML:ASF H:\Terrain\Patient Classification 1\Animal2\Wednesday\Animal2.ASF
:FULLY-SPECIFIED
:DEGREES
3034
root 12.0512 15.6086 -14.423 34.194 -35.2056 -18.5204
lowerback 28.4468 -0.708309 -1.77043
upperback 7.25733 -3.1874 -12.964
thorax -8.05557 -1.6988 -11.9215
lowerneck -3.41403 -8.83522 2.12514
upperneck -5.40187 -12.234 -4.51594
head -1.56499 -6.14771 -1.68621
rclavicle -1.90833e-014 -8.90555e-014
rhumerus -2.27364 -19.3287 -3.6568
rradius 132.218
rwrist -22.0019
rhand 0.0335178 29.5846
rfingers 7.12502
rthumb 25.6225 1.28846
lclavicle -1.90833e-014 -8.90555e-014
lhumerus -33.504 7.80561 17.1425
lradius 118.451
lwrist 66.0742
lhand -45.0659 51.1672
lfingers 7.12502
lthumb -17.8471 80.3683
rfemur -56.215 -17.9415 18.9272
rtibia 53.8911
rfoot -5.03727 4.90318
rtoes -31.3818
lfemur -64.2494 24.2744 6.61386
ltibia 60.5897
lfoot -16.6659 -4.47762
ltoes -40.1304
3035
root 11.9912 15.5158 -14.4961 33.4556 -34.6728 -17.0423
lowerback 28.5501 -0.372809 -1.24528
upperback 7.40729 -2.60947 -13.0471
thorax -7.86387 -1.41982 -12.5278
lowerneck -3.43431 -9.30602 2.99379
upperneck -5.48551 -12.9153 -4.75271
head -1.69628 -6.5023 -1.88728
rclavicle 3.18055e-015 7.4743e-014
rhumerus -2.7245 -19.656 -5.04896
rradius 131.593
rwrist -19.1601
rhand -1.63673 28.553
rfingers 7.12502
rthumb 24.0218 0.0362548
lclavicle 3.18055e-015 7.4743e-014
lhumerus -34.2543 9.55809 18.7314
lradius 117.781
lwrist 71.0549
lhand -43.716 46.9777
lfingers 7.12502
lthumb -16.5478 76.2922
rfemur -56.2037 -18.0929 18.0232
rtibia 54.5339
rfoot -8.37518 3.07091
rtoes -28.6467
lfemur -65.5314 23.8656 5.56
ltibia 61.0382
lfoot -16.71 -5.07168
ltoes -39.4394
3036
root 11.9301 15.4318 -14.5689 32.641 -34.3055 -15.496
lowerback 28.8632 -0.51639 -1.58317
upperback 7.471 -2.85128 -12.7609
thorax -7.92649 -1.51531 -11.9122
lowerneck -4.38229 -9.10681 2.1561
upperneck -5.50651 -12.6401 -4.72364
head -1.46934 -6.36799 -1.79781
rclavicle 3.49861e-014 1.57437e-013
rhumerus -0.385807 -20.2221 -7.64443
rradius 130.656
rwrist -16.6711
rhand -2.88622 28.0298
rfingers 7.12502
rthumb 22.8232 -0.639837
lclavicle 3.49861e-014 1.57437e-013
lhumerus -37.1299 12.8267 18.7511
lradius 118.602
lwrist 77.9555
lhand -44.4047 56.7971
lfingers 7.12502
lthumb -17.2107 86.0549
rfemur -56.4058 -18.259 16.886
rtibia 55.3149
rfoot -11.1847 1.55409
rtoes -27.6337
lfemur -66.582 23.4412 4.44296
ltibia 61.4387
lfoot -16.5072 -5.82895
ltoes -38.126
3037
root 11.8751 15.3586 -14.6466 31.8974 -33.9761 -14.0761
lowerback 29.1114 -0.139398 -1.27747
upperback 7.52618 -2.29881 -12.804
thorax -7.88654 -1.24822 -12.338
lowerneck -4.18957 -9.48433 3.12492
upperneck -5.99798 -13.2435 -5.16402
head -1.79262 -6.67878 -2.05964
rclavicle 3.49861e-014 6.99722e-014
rhumerus -0.31885 -20.8477 -9.39465
rradius 129.769
rwrist -14.7997
rhand -3.86505 27.8944
rfingers 7.12502
rthumb 21.8835 -0.88804
lclavicle 3.49861e-014 6.99722e-014
lhumerus -38.0035 14.3345 19.4753
lradius 118.745
lwrist 84.8758
lhand -44.6084 53.2135
lfingers 7.12502
lthumb -17.4068 82.4541
rfemur -56.858 -18.4984 15.8661
rtibia 56.2988
rfoot -13.2904 0.258758
rtoes -29.1769
lfemur -67.5834 23.1097 3.39534
ltibia 61.9185
lfoot -16.4176 -6.22325
ltoes -38.7716
3038
root 11.8272 15.2708 -14.7204 31.4179 -33.5266 -13.0163
lowerback 29.2005 -0.129775 -0.927394
upperback 7.60852 -2.14622 -12.6077
thorax -7.80305 -1.16668 -12.3688
lowerneck -4.39402 -9.54986 3.19592
upperneck -6.529 -13.395 -5.36979
head -1.96178 -6.7568 -2.13089
rclavicle -5.40694e-014 1.90833e-014
rhumerus 1.51974 -21.4239 -11.9263
rradius 128.596
rwrist -12.8844
rhand -5.40704 27.6034
rfingers 7.12502
rthumb 20.4023 -1.34476
lclavicle -5.40694e-014 1.90833e-014
lhumerus -40.0375 16.8166 19.469
lradius 118.749
lwrist 92.1909
lhand -44.7323 53.5583
lfingers 7.12502
lthumb -17.5261 82.7883
rfemur -57.6658 -19.1138 15.5356
rtibia 57.5509
rfoot -14.8501 -1.60581
rtoes -34.6541
lfemur -68.7161 22.8876 2.68652
ltibia 62.5586
lfoot -16.332 -7.08531
ltoes -37.9056
3039
root 11.785 15.1676 -14.7869 31.2114 -33.0656 -12.1676
lowerback 29.1246 -0.189895 -0.650417
upperback 7.60183 -2.07196 -12.2256
thorax -7.73983 -1.12167 -12.1171
lowerneck -4.62404 -9.48212 2.90684
upperneck -7.22848 -13.3626 -5.47854
head -2.13895 -6.73509 -2.11419
rclavicle 3.18055e-014 -6.36111e-015
rhumerus 4.08103 -21.5013 -14.9064
rradius 127.241
rwrist -10.0044
rhand -7.44105 26.9953
rfingers 7.12502
rthumb 18.4466 -2.15003
lclavicle 3.18055e-014 -6.36111e-015
lhumerus -42.6936 19.2257 19.5639
lradius 118.809
lwrist 98.0741
lhand -44.8023 52.7848
lfingers 7.12502
lthumb -17.5934 82.0088
rfemur -58.8508 -19.9801 15.5329
rtibia 59.053
rfoot -15.9499 -3.2009
rtoes -38.228
lfemur -70.0854 22.8259 2.01628
ltibia 63.3145
lfoot -16.4005 -7.64448
ltoes -38.1001
3040
root 11.7507 15.0597 -14.8533 30.9816 -32.8122 -11.3844
lowerback 29.0546 -0.262042 -0.256957
upperback 7.50992 -2.00656 -11.9484
thorax -7.79076 -1.09079 -12.0538
lowerneck -3.9696 -9.41499 2.48899
upperneck -8.47982 -13.3333 -5.27748
head -2.62064 -6.69113 -1.9163
rclavicle 1.90833e-014 7.95139e-015
rhumerus 6.29656 -21.1597 -18.2324
rradius 126.159
rwrist -6.70788
rhand -9.48177 26.5602
rfingers 7.12502
rthumb 16.4826 -2.75969
lclavicle 1.90833e-014 7.95139e-015
lhumerus -45.5745 21.1939 19.6958
lradius 118.93
lwrist 102.234
lhand -44.9706 51.634
lfingers 7.12502
lthumb -17.7554 80.8434
rfemur -60.1603 -20.7152 15.3925
rtibia 60.7112
rfoot -16.864 -3.65457
rtoes -37.6563
lfemur -71.3782 22.9091 1.27827
ltibia 64.1239
lfoot -16.632 -7.67092
ltoes -39.4222
3041
root 11.7179 14.9549 -14.9183 30.6463 -32.8188 -10.8823
lowerback 29.3047 -0.0549546 0.130751
upperback 7.46671 -1.62085 -11.7404
thorax -7.86538 -0.908448 -12.1808
lowerneck -3.26975 -9.52543 2.53747
upperneck -9.82494 -13.5774 -5.14446
head -3.20965 -6.79281 -1.80379
rclavicle -4.77083e-014 -1.27222e-014
rhumerus 8.76224 -20.9856 -21.3261
rradius 124.227
rwrist -3.97653
rhand -11.8105 26.5041
rfingers 7.12502
rthumb 14.2397 -2.98778
lclavicle -4.77083e-014 -1.27222e-014
lhumerus -47.6987 22.6603 19.9836
lradius 118.899
lwrist 104.613
lhand -44.7027 50.8025
lfingers 7.12502
lthumb -17.4975 80.035
rfemur -61.3828 -21.1981 15.3861
rtibia 62.4031
rfoot -17.5858 -3.87726
rtoes -36.2266
lfemur -72.204 23.1509 0.869889
ltibia 64.9408
lfoot -16.7887 -7.81249
ltoes -40.302
3042
root 11.6852 14.8622 -14.9804 30.2692 -33.0852 -10.3028
lowerback 29.5306 0.209877 0.176758
upperback 7.35114 -1.2667 -11.5445
thorax -8.00112 -0.741657 -12.1151
lowerneck -2.31318 -9.59047 2.56914
upperneck -11.2746 -13.7679 -5.03713
head -3.89791 -6.85828 -1.67952
rclavicle -9.54166e-015 1.22451e-013
rhumerus 10.9991 -20.553 -24.5916
rradius 122.755
rwrist -1.65652
rhand -13.803 26.7163
rfingers 7.12502
rthumb 12.3191 -2.90075
lclavicle -9.54166e-015 1.22451e-013
lhumerus -50.0917 23.8613 20.1131
lradius 118.953
lwrist 105.175
lhand -44.4283 49.9091
lfingers 7.12502
lthumb -17.2335 79.1649
rfemur -62.6915 -21.6389 15.3214
rtibia 64.0404
rfoot -18.163 -4.21298
rtoes -36.1317
lfemur -72.8425 23.4941 0.347934
ltibia 65.7354
lfoot -16.9784 -8.07271
ltoes -41.3049
3043
root 11.6554 14.7662 -15.0436 30.0429 -33.4079 -9.64989
lowerback 29.5328 0.488166 0.038167
upperback 7.20009 -0.931368 -11.3063
thorax -8.07628 -0.580571 -11.8868
lowerneck -1.77672 -9.64684 2.8206
upperneck -12.2296 -13.9527 -5.28166
head -4.40018 -6.92974 -1.73941
rclavicle -4.45278e-014 2.06736e-014
rhumerus 12.9846 -19.9249 -28.0421
rradius 121.418
rwrist 0.224704
rhand -15.0678 26.7666
rfingers 7.12502
rthumb 11.0993 -2.91993
lclavicle -4.45278e-014 2.06736e-014
lhumerus -52.668 24.9843 20.3946
lradius 119.196
lwrist 104.56
lhand -44.8395 49.1515
lfingers 7.12502
lthumb -17.6292 78.3723
rfemur -64.1797 -22.1063 15.269
rtibia 65.5944
rfoot -18.6779 -4.70209
rtoes -37.1542
lfemur -73.6938 23.9384 -0.351914
ltibia 66.529
lfoot -17.0731 -8.57803
ltoes -41.1616
